<mxfile host="app.diagrams.net" modified="2024-03-18T03:17:35.643Z" agent="Mozilla/5.0 (Windows NT 10.0; Win64; x64) AppleWebKit/537.36 (KHTML, like Gecko) Chrome/122.0.0.0 Safari/537.36" etag="iac6Zy-qMfuiKGmtVsBD" version="24.0.7" type="github">
  <diagram id="C5RBs43oDa-KdzZeNtuy" name="Page-1">
    <mxGraphModel dx="1434" dy="841" grid="1" gridSize="10" guides="1" tooltips="1" connect="1" arrows="1" fold="1" page="1" pageScale="1" pageWidth="827" pageHeight="1169" background="#ffffff" math="0" shadow="0">
      <root>
        <mxCell id="WIyWlLk6GJQsqaUBKTNV-0" />
        <mxCell id="WIyWlLk6GJQsqaUBKTNV-1" parent="WIyWlLk6GJQsqaUBKTNV-0" />
        <mxCell id="WIyWlLk6GJQsqaUBKTNV-2" value="" style="rounded=0;html=1;jettySize=auto;orthogonalLoop=1;fontSize=11;endArrow=block;endFill=0;endSize=8;strokeWidth=1;shadow=0;labelBackgroundColor=none;edgeStyle=orthogonalEdgeStyle;" parent="WIyWlLk6GJQsqaUBKTNV-1" source="WIyWlLk6GJQsqaUBKTNV-3" target="WIyWlLk6GJQsqaUBKTNV-6" edge="1">
          <mxGeometry relative="1" as="geometry" />
        </mxCell>
        <mxCell id="WIyWlLk6GJQsqaUBKTNV-3" value="点击选择AI模型分析" style="rounded=1;whiteSpace=wrap;html=1;fontSize=12;glass=0;strokeWidth=1;shadow=0;" parent="WIyWlLk6GJQsqaUBKTNV-1" vertex="1">
          <mxGeometry x="290" y="30" width="120" height="40" as="geometry" />
        </mxCell>
        <mxCell id="WIyWlLk6GJQsqaUBKTNV-5" value="不是" style="edgeStyle=orthogonalEdgeStyle;rounded=0;html=1;jettySize=auto;orthogonalLoop=1;fontSize=11;endArrow=block;endFill=0;endSize=8;strokeWidth=1;shadow=0;labelBackgroundColor=none;" parent="WIyWlLk6GJQsqaUBKTNV-1" source="WIyWlLk6GJQsqaUBKTNV-6" target="WIyWlLk6GJQsqaUBKTNV-7" edge="1">
          <mxGeometry y="10" relative="1" as="geometry">
            <mxPoint as="offset" />
          </mxGeometry>
        </mxCell>
        <mxCell id="zftXcXtOyWCV9swfXEnX-1" value="" style="edgeStyle=orthogonalEdgeStyle;rounded=0;orthogonalLoop=1;jettySize=auto;html=1;" edge="1" parent="WIyWlLk6GJQsqaUBKTNV-1" source="WIyWlLk6GJQsqaUBKTNV-6" target="WIyWlLk6GJQsqaUBKTNV-7">
          <mxGeometry relative="1" as="geometry" />
        </mxCell>
        <mxCell id="zftXcXtOyWCV9swfXEnX-5" value="" style="edgeStyle=orthogonalEdgeStyle;rounded=0;orthogonalLoop=1;jettySize=auto;html=1;" edge="1" parent="WIyWlLk6GJQsqaUBKTNV-1" source="WIyWlLk6GJQsqaUBKTNV-6" target="zftXcXtOyWCV9swfXEnX-4">
          <mxGeometry relative="1" as="geometry" />
        </mxCell>
        <mxCell id="zftXcXtOyWCV9swfXEnX-6" value="是会员" style="edgeLabel;html=1;align=center;verticalAlign=middle;resizable=0;points=[];" vertex="1" connectable="0" parent="zftXcXtOyWCV9swfXEnX-5">
          <mxGeometry x="-0.2444" y="-4" relative="1" as="geometry">
            <mxPoint as="offset" />
          </mxGeometry>
        </mxCell>
        <mxCell id="WIyWlLk6GJQsqaUBKTNV-6" value="是不是会员" style="rhombus;whiteSpace=wrap;html=1;shadow=0;fontFamily=Helvetica;fontSize=12;align=center;strokeWidth=1;spacing=6;spacingTop=-4;" parent="WIyWlLk6GJQsqaUBKTNV-1" vertex="1">
          <mxGeometry x="300" y="120" width="100" height="80" as="geometry" />
        </mxCell>
        <mxCell id="zftXcXtOyWCV9swfXEnX-10" style="edgeStyle=orthogonalEdgeStyle;rounded=0;orthogonalLoop=1;jettySize=auto;html=1;exitX=0.5;exitY=1;exitDx=0;exitDy=0;entryX=1;entryY=0.5;entryDx=0;entryDy=0;" edge="1" parent="WIyWlLk6GJQsqaUBKTNV-1" source="WIyWlLk6GJQsqaUBKTNV-7" target="zftXcXtOyWCV9swfXEnX-15">
          <mxGeometry relative="1" as="geometry" />
        </mxCell>
        <mxCell id="zftXcXtOyWCV9swfXEnX-11" value="支付成功" style="edgeLabel;html=1;align=center;verticalAlign=middle;resizable=0;points=[];" vertex="1" connectable="0" parent="zftXcXtOyWCV9swfXEnX-10">
          <mxGeometry x="-0.5818" y="-1" relative="1" as="geometry">
            <mxPoint x="1" y="48" as="offset" />
          </mxGeometry>
        </mxCell>
        <mxCell id="WIyWlLk6GJQsqaUBKTNV-7" value="调起微信支付付款" style="rounded=1;whiteSpace=wrap;html=1;fontSize=12;glass=0;strokeWidth=1;shadow=0;" parent="WIyWlLk6GJQsqaUBKTNV-1" vertex="1">
          <mxGeometry x="520" y="140" width="120" height="40" as="geometry" />
        </mxCell>
        <mxCell id="zftXcXtOyWCV9swfXEnX-8" value="" style="edgeStyle=orthogonalEdgeStyle;rounded=0;orthogonalLoop=1;jettySize=auto;html=1;" edge="1" parent="WIyWlLk6GJQsqaUBKTNV-1" source="zftXcXtOyWCV9swfXEnX-4" target="zftXcXtOyWCV9swfXEnX-7">
          <mxGeometry relative="1" as="geometry" />
        </mxCell>
        <mxCell id="zftXcXtOyWCV9swfXEnX-17" value="是-进入玖卓授权页" style="edgeLabel;html=1;align=center;verticalAlign=middle;resizable=0;points=[];" vertex="1" connectable="0" parent="zftXcXtOyWCV9swfXEnX-8">
          <mxGeometry x="0.5246" y="1" relative="1" as="geometry">
            <mxPoint as="offset" />
          </mxGeometry>
        </mxCell>
        <mxCell id="zftXcXtOyWCV9swfXEnX-4" value="免费使用，直接开始分析" style="rounded=1;whiteSpace=wrap;html=1;" vertex="1" parent="WIyWlLk6GJQsqaUBKTNV-1">
          <mxGeometry x="290" y="280" width="120" height="60" as="geometry" />
        </mxCell>
        <mxCell id="zftXcXtOyWCV9swfXEnX-21" value="" style="edgeStyle=orthogonalEdgeStyle;rounded=0;orthogonalLoop=1;jettySize=auto;html=1;" edge="1" parent="WIyWlLk6GJQsqaUBKTNV-1" source="zftXcXtOyWCV9swfXEnX-7">
          <mxGeometry relative="1" as="geometry">
            <mxPoint x="354" y="720" as="targetPoint" />
          </mxGeometry>
        </mxCell>
        <mxCell id="zftXcXtOyWCV9swfXEnX-7" value="进入授权页面授权" style="rounded=1;whiteSpace=wrap;html=1;" vertex="1" parent="WIyWlLk6GJQsqaUBKTNV-1">
          <mxGeometry x="294" y="580" width="120" height="60" as="geometry" />
        </mxCell>
        <mxCell id="zftXcXtOyWCV9swfXEnX-18" style="edgeStyle=orthogonalEdgeStyle;rounded=0;orthogonalLoop=1;jettySize=auto;html=1;exitX=0;exitY=0.5;exitDx=0;exitDy=0;entryX=0;entryY=0.5;entryDx=0;entryDy=0;" edge="1" parent="WIyWlLk6GJQsqaUBKTNV-1" source="zftXcXtOyWCV9swfXEnX-15" target="zftXcXtOyWCV9swfXEnX-7">
          <mxGeometry relative="1" as="geometry">
            <Array as="points">
              <mxPoint x="200" y="450" />
              <mxPoint x="200" y="610" />
            </Array>
          </mxGeometry>
        </mxCell>
        <mxCell id="zftXcXtOyWCV9swfXEnX-19" value="否-进入微风企授权页" style="edgeLabel;html=1;align=center;verticalAlign=middle;resizable=0;points=[];" vertex="1" connectable="0" parent="zftXcXtOyWCV9swfXEnX-18">
          <mxGeometry x="-0.3235" y="-3" relative="1" as="geometry">
            <mxPoint x="-17" y="51" as="offset" />
          </mxGeometry>
        </mxCell>
        <mxCell id="zftXcXtOyWCV9swfXEnX-15" value="是否是玖卓数据源" style="rhombus;whiteSpace=wrap;html=1;" vertex="1" parent="WIyWlLk6GJQsqaUBKTNV-1">
          <mxGeometry x="290" y="410" width="120" height="80" as="geometry" />
        </mxCell>
        <mxCell id="zftXcXtOyWCV9swfXEnX-27" value="" style="edgeStyle=orthogonalEdgeStyle;rounded=0;orthogonalLoop=1;jettySize=auto;html=1;" edge="1" parent="WIyWlLk6GJQsqaUBKTNV-1" source="zftXcXtOyWCV9swfXEnX-23" target="zftXcXtOyWCV9swfXEnX-26">
          <mxGeometry relative="1" as="geometry" />
        </mxCell>
        <mxCell id="zftXcXtOyWCV9swfXEnX-32" value="授权回调" style="edgeLabel;html=1;align=center;verticalAlign=middle;resizable=0;points=[];" vertex="1" connectable="0" parent="zftXcXtOyWCV9swfXEnX-27">
          <mxGeometry x="-0.4" y="1" relative="1" as="geometry">
            <mxPoint x="-1" y="2" as="offset" />
          </mxGeometry>
        </mxCell>
        <mxCell id="zftXcXtOyWCV9swfXEnX-23" value="授权是否成功" style="rhombus;whiteSpace=wrap;html=1;" vertex="1" parent="WIyWlLk6GJQsqaUBKTNV-1">
          <mxGeometry x="314" y="700" width="80" height="80" as="geometry" />
        </mxCell>
        <mxCell id="zftXcXtOyWCV9swfXEnX-30" value="" style="edgeStyle=orthogonalEdgeStyle;rounded=0;orthogonalLoop=1;jettySize=auto;html=1;" edge="1" parent="WIyWlLk6GJQsqaUBKTNV-1" source="zftXcXtOyWCV9swfXEnX-26" target="zftXcXtOyWCV9swfXEnX-29">
          <mxGeometry relative="1" as="geometry" />
        </mxCell>
        <mxCell id="zftXcXtOyWCV9swfXEnX-33" value="采集回调" style="edgeLabel;html=1;align=center;verticalAlign=middle;resizable=0;points=[];" vertex="1" connectable="0" parent="zftXcXtOyWCV9swfXEnX-30">
          <mxGeometry x="-0.1429" y="-2" relative="1" as="geometry">
            <mxPoint as="offset" />
          </mxGeometry>
        </mxCell>
        <mxCell id="zftXcXtOyWCV9swfXEnX-26" value="生成服务" style="rounded=1;whiteSpace=wrap;html=1;" vertex="1" parent="WIyWlLk6GJQsqaUBKTNV-1">
          <mxGeometry x="294" y="860" width="120" height="60" as="geometry" />
        </mxCell>
        <mxCell id="zftXcXtOyWCV9swfXEnX-37" value="" style="edgeStyle=orthogonalEdgeStyle;rounded=0;orthogonalLoop=1;jettySize=auto;html=1;" edge="1" parent="WIyWlLk6GJQsqaUBKTNV-1" source="zftXcXtOyWCV9swfXEnX-29">
          <mxGeometry relative="1" as="geometry">
            <mxPoint x="354" y="1130" as="targetPoint" />
          </mxGeometry>
        </mxCell>
        <mxCell id="zftXcXtOyWCV9swfXEnX-38" value="消费callback这topic" style="edgeLabel;html=1;align=center;verticalAlign=middle;resizable=0;points=[];" vertex="1" connectable="0" parent="zftXcXtOyWCV9swfXEnX-37">
          <mxGeometry x="-0.15" y="-2" relative="1" as="geometry">
            <mxPoint as="offset" />
          </mxGeometry>
        </mxCell>
        <mxCell id="zftXcXtOyWCV9swfXEnX-29" value="小禹查收到回调通知后会立即返回，并将采集回调通知放入MQ中" style="rounded=1;whiteSpace=wrap;html=1;" vertex="1" parent="WIyWlLk6GJQsqaUBKTNV-1">
          <mxGeometry x="294" y="990" width="120" height="60" as="geometry" />
        </mxCell>
        <mxCell id="zftXcXtOyWCV9swfXEnX-41" value="" style="edgeStyle=orthogonalEdgeStyle;rounded=0;orthogonalLoop=1;jettySize=auto;html=1;" edge="1" parent="WIyWlLk6GJQsqaUBKTNV-1" source="zftXcXtOyWCV9swfXEnX-39">
          <mxGeometry relative="1" as="geometry">
            <mxPoint x="355" y="1300" as="targetPoint" />
          </mxGeometry>
        </mxCell>
        <mxCell id="zftXcXtOyWCV9swfXEnX-42" value="财税" style="edgeLabel;html=1;align=center;verticalAlign=middle;resizable=0;points=[];" vertex="1" connectable="0" parent="zftXcXtOyWCV9swfXEnX-41">
          <mxGeometry x="-0.2444" y="-2" relative="1" as="geometry">
            <mxPoint as="offset" />
          </mxGeometry>
        </mxCell>
        <mxCell id="zftXcXtOyWCV9swfXEnX-44" value="" style="edgeStyle=orthogonalEdgeStyle;rounded=0;orthogonalLoop=1;jettySize=auto;html=1;" edge="1" parent="WIyWlLk6GJQsqaUBKTNV-1" source="zftXcXtOyWCV9swfXEnX-39" target="zftXcXtOyWCV9swfXEnX-43">
          <mxGeometry relative="1" as="geometry" />
        </mxCell>
        <mxCell id="zftXcXtOyWCV9swfXEnX-45" value="发票" style="edgeLabel;html=1;align=center;verticalAlign=middle;resizable=0;points=[];" vertex="1" connectable="0" parent="zftXcXtOyWCV9swfXEnX-44">
          <mxGeometry x="-0.0105" y="1" relative="1" as="geometry">
            <mxPoint as="offset" />
          </mxGeometry>
        </mxCell>
        <mxCell id="zftXcXtOyWCV9swfXEnX-39" value="财税还是发票回调" style="rhombus;whiteSpace=wrap;html=1;" vertex="1" parent="WIyWlLk6GJQsqaUBKTNV-1">
          <mxGeometry x="280" y="1130" width="150" height="80" as="geometry" />
        </mxCell>
        <mxCell id="zftXcXtOyWCV9swfXEnX-43" value="发票处理逻辑" style="whiteSpace=wrap;html=1;" vertex="1" parent="WIyWlLk6GJQsqaUBKTNV-1">
          <mxGeometry x="65" y="1140" width="120" height="60" as="geometry" />
        </mxCell>
        <mxCell id="zftXcXtOyWCV9swfXEnX-49" value="" style="edgeStyle=orthogonalEdgeStyle;rounded=0;orthogonalLoop=1;jettySize=auto;html=1;" edge="1" parent="WIyWlLk6GJQsqaUBKTNV-1" source="zftXcXtOyWCV9swfXEnX-46">
          <mxGeometry relative="1" as="geometry">
            <mxPoint x="355" y="1460" as="targetPoint" />
          </mxGeometry>
        </mxCell>
        <mxCell id="zftXcXtOyWCV9swfXEnX-50" value="否" style="edgeLabel;html=1;align=center;verticalAlign=middle;resizable=0;points=[];" vertex="1" connectable="0" parent="zftXcXtOyWCV9swfXEnX-49">
          <mxGeometry x="-0.2" y="-3" relative="1" as="geometry">
            <mxPoint as="offset" />
          </mxGeometry>
        </mxCell>
        <mxCell id="zftXcXtOyWCV9swfXEnX-60" style="edgeStyle=orthogonalEdgeStyle;rounded=0;orthogonalLoop=1;jettySize=auto;html=1;exitX=0;exitY=0.5;exitDx=0;exitDy=0;" edge="1" parent="WIyWlLk6GJQsqaUBKTNV-1" source="zftXcXtOyWCV9swfXEnX-46">
          <mxGeometry relative="1" as="geometry">
            <mxPoint x="100" y="1600" as="targetPoint" />
          </mxGeometry>
        </mxCell>
        <mxCell id="zftXcXtOyWCV9swfXEnX-46" value="30天内是否已采集" style="rhombus;whiteSpace=wrap;html=1;" vertex="1" parent="WIyWlLk6GJQsqaUBKTNV-1">
          <mxGeometry x="280" y="1290" width="150" height="80" as="geometry" />
        </mxCell>
        <mxCell id="zftXcXtOyWCV9swfXEnX-53" value="" style="edgeStyle=orthogonalEdgeStyle;rounded=0;orthogonalLoop=1;jettySize=auto;html=1;" edge="1" parent="WIyWlLk6GJQsqaUBKTNV-1" source="zftXcXtOyWCV9swfXEnX-51" target="zftXcXtOyWCV9swfXEnX-52">
          <mxGeometry relative="1" as="geometry" />
        </mxCell>
        <mxCell id="zftXcXtOyWCV9swfXEnX-51" value="重新请求接口数据" style="rounded=1;whiteSpace=wrap;html=1;" vertex="1" parent="WIyWlLk6GJQsqaUBKTNV-1">
          <mxGeometry x="295" y="1460" width="120" height="60" as="geometry" />
        </mxCell>
        <mxCell id="zftXcXtOyWCV9swfXEnX-55" value="" style="edgeStyle=orthogonalEdgeStyle;rounded=0;orthogonalLoop=1;jettySize=auto;html=1;" edge="1" parent="WIyWlLk6GJQsqaUBKTNV-1" source="zftXcXtOyWCV9swfXEnX-52" target="zftXcXtOyWCV9swfXEnX-54">
          <mxGeometry relative="1" as="geometry" />
        </mxCell>
        <mxCell id="zftXcXtOyWCV9swfXEnX-52" value="返回数据放入mongodb中" style="rounded=1;whiteSpace=wrap;html=1;" vertex="1" parent="WIyWlLk6GJQsqaUBKTNV-1">
          <mxGeometry x="295" y="1600" width="120" height="60" as="geometry" />
        </mxCell>
        <mxCell id="zftXcXtOyWCV9swfXEnX-57" value="" style="edgeStyle=orthogonalEdgeStyle;rounded=0;orthogonalLoop=1;jettySize=auto;html=1;" edge="1" parent="WIyWlLk6GJQsqaUBKTNV-1" source="zftXcXtOyWCV9swfXEnX-54" target="zftXcXtOyWCV9swfXEnX-56">
          <mxGeometry relative="1" as="geometry" />
        </mxCell>
        <mxCell id="zftXcXtOyWCV9swfXEnX-54" value="重新按照逻辑计算指标存库生成新的dataId" style="whiteSpace=wrap;html=1;rounded=1;" vertex="1" parent="WIyWlLk6GJQsqaUBKTNV-1">
          <mxGeometry x="295" y="1740" width="120" height="60" as="geometry" />
        </mxCell>
        <mxCell id="zftXcXtOyWCV9swfXEnX-56" value="更新服务状态，生成报告" style="whiteSpace=wrap;html=1;rounded=1;" vertex="1" parent="WIyWlLk6GJQsqaUBKTNV-1">
          <mxGeometry x="295" y="1880" width="120" height="60" as="geometry" />
        </mxCell>
        <mxCell id="zftXcXtOyWCV9swfXEnX-62" style="edgeStyle=orthogonalEdgeStyle;rounded=0;orthogonalLoop=1;jettySize=auto;html=1;exitX=0.5;exitY=1;exitDx=0;exitDy=0;entryX=0;entryY=0.5;entryDx=0;entryDy=0;" edge="1" parent="WIyWlLk6GJQsqaUBKTNV-1" source="zftXcXtOyWCV9swfXEnX-61" target="zftXcXtOyWCV9swfXEnX-56">
          <mxGeometry relative="1" as="geometry" />
        </mxCell>
        <mxCell id="zftXcXtOyWCV9swfXEnX-61" value="查询最新的dataId" style="rounded=1;whiteSpace=wrap;html=1;" vertex="1" parent="WIyWlLk6GJQsqaUBKTNV-1">
          <mxGeometry x="40" y="1600" width="120" height="60" as="geometry" />
        </mxCell>
      </root>
    </mxGraphModel>
  </diagram>
</mxfile>
